<svg class="canvas" viewBox="0 0 1920 1080" preserveAspectRatio="xMaxYMid slice" xmlns="http://www.w3.org/2000/svg" version="1.1" xmlns:xlink="http://www.w3.org/1999/xlink" xmlns:svgjs="http://svgjs.dev/svgjs"><rect width="1920" height="1080" fill="hsl(237, 65%, 15%)"></rect><defs><linearGradient x1="0.5" y1="0" x2="0" y2="1" id="SvgjsLinearGradient1273"><stop stop-color="#4b288a" offset="0"></stop><stop stop-color="#14060f" offset="0.1"></stop></linearGradient><linearGradient x1="0.5" y1="0" x2="0" y2="1" id="SvgjsLinearGradient1274"><stop stop-color="#282d8a" offset="0"></stop><stop stop-color="#130614" offset="0.22857142857142856"></stop></linearGradient><linearGradient x1="0.5" y1="0" x2="0" y2="1" id="SvgjsLinearGradient1275"><stop stop-color="#37288a" offset="0"></stop><stop stop-color="#140612" offset="0.3571428571428571"></stop></linearGradient><linearGradient x1="0.5" y1="0" x2="0" y2="1" id="SvgjsLinearGradient1276"><stop stop-color="#c7c0f2" offset="0"></stop><stop stop-color="#d742c0" offset="0.48571428571428565"></stop></linearGradient><linearGradient x1="0.5" y1="0" x2="0" y2="1" id="SvgjsLinearGradient1277"><stop stop-color="#c0c2f2" offset="0"></stop><stop stop-color="#cf42d7" offset="0.6142857142857142"></stop></linearGradient><linearGradient x1="0.5" y1="0" x2="0" y2="1" id="SvgjsLinearGradient1278"><stop stop-color="#d1c0f2" offset="0"></stop><stop stop-color="#d742a3" offset="0.7428571428571429"></stop></linearGradient><linearGradient x1="0.5" y1="0" x2="0" y2="1" id="SvgjsLinearGradient1279"><stop stop-color="#c7c0f2" offset="0"></stop><stop stop-color="#d742c0" offset="0.8714285714285713"></stop></linearGradient></defs><path d="M0,-494.38177544305535C83.05649477112128,-476.97237275690486,345.8569295775437,-435.4532079516544,498.3389686267277,-389.9253593261526C650.8210076759117,-344.3975107006508,750.4815939049122,-267.3583163825024,914.892234295104,-221.21468369004467C1079.3028746852958,-175.07105099758692,1317.2848500170628,-157.53571454590434,1484.8028109678787,-113.06356317140613C1652.3207719186946,-68.5914117969079,1847.467135161313,19.171259935552868,1920,45.61822455694467L 1920 1080 L 0 1080 Z" fill="url(&quot;#SvgjsLinearGradient1273&quot;)"></path><path d="M0,-448.5063137772257C88.00177368213174,-430.06710684390237,372.1971081846415,-392.27472020513716,528.0106420927905,-337.87107217728555C683.8241760009395,-283.46742414943395,787.5647850467757,-177.15406560057693,934.881203448894,-122.08442561011603C1082.1976218510122,-67.01478561965513,1247.7226864136492,-45.43053658762091,1411.9091525055,-7.453232234520144C1576.095618597351,30.52407211858062,1835.31819208425,86.90729505132043,1920,105.77940050848855L 1920 1080 L 0 1080 Z" fill="url(&quot;#SvgjsLinearGradient1274&quot;)"></path><path d="M0,-280.60095817806456C50.79452007632759,-264.98478717367095,199.04252497643114,-223.55525723696795,304.7671204579656,-186.9039321517028C410.4917159395,-150.25260706643766,525.6125352527307,-93.39614407103309,634.3475728892067,-60.69300766647376C743.0826105256828,-27.989871261914423,848.4454484594501,-13.912548982386877,957.1773462768218,9.314886275653244C1065.9092440941936,32.54232153369337,1180.9895187557677,47.525184757409804,1286.7389597934373,78.67160388176697C1392.488400831107,109.81802300612414,1486.1304858017454,161.3102566031967,1591.6739925028392,196.1934010217962C1697.217499203933,231.0765454403957,1865.2789987504732,272.67429216476944,1920,287.97047039336405L 1920 1080 L 0 1080 Z" fill="url(&quot;#SvgjsLinearGradient1275&quot;)"></path><path d="M0,-163.1129058584266C40.214098474217664,-153.08621518719355,148.7884761608598,-135.1725190039245,241.28459084530598,-102.95276183102837C333.78070552975214,-70.73300465813224,458.504138868803,-1.6205704435484058,554.9766881066771,30.20563717895017C651.4492373445512,62.03184480144874,733.4061873349592,69.4521210272057,820.1198862725504,88.00448390396309C906.8335852101416,106.55684678072048,988.9709231785696,107.0752617243376,1075.2588817322244,141.5198144394945C1161.5468402858792,175.9643671546514,1245.4775102775473,253.71306765236403,1337.8476375944792,294.6718001949045C1430.2177649114112,335.630532737445,1532.454251899563,366.42680356076863,1629.4796456338163,387.2722096947373C1726.5050393680697,408.11761582870594,1871.5799409389695,414.3322324480531,1920,419.7442369987163L 1920 1080 L 0 1080 Z" fill="url(&quot;#SvgjsLinearGradient1276&quot;)"></path><path d="M0,-54.15949877352331C77.84610308574604,-34.08892707856366,302.5748326589527,16.740985951903127,467.07661851447625,66.2639313962346C631.5784043699998,115.78687684056607,820.5067221040439,185.0637718619528,987.0107151331415,242.97817389246552C1153.514708162239,300.8925759229782,1310.6023625445855,363.74947949983283,1466.1005766890619,413.7503435793109C1621.5987908335383,463.7512076587889,1844.3500961148436,521.4445225709967,1920,542.9833583693339L 1920 1080 L 0 1080 Z" fill="url(&quot;#SvgjsLinearGradient1277&quot;)"></path><path d="M0,109.46318408762002C59.33966286014069,130.38521710597664,225.35630309559124,198.6942144634325,356.03797716084415,234.99538219775965C486.7196512260971,271.2965499320868,652.0324260676584,290.9741473020087,784.0900443915174,327.27019049358296C916.1476627153763,363.5662336851572,1022.0609213640946,414.47961846111883,1148.3836871039978,452.7716413472051C1274.706452843901,491.0636642332914,1413.4239200149364,512.3356421152696,1542.0266388309367,557.0223278101006C1670.629357646937,601.7090135049316,1857.0044398051562,693.580184231843,1920,720.8917555161914L 1920 1080 L 0 1080 Z" fill="url(&quot;#SvgjsLinearGradient1278&quot;)"></path><path d="M0,242.6639756873055C65.21624268061147,262.46768398627705,259.60060203684486,317.602310363139,391.2974560836688,361.4862254811349C522.9943101304927,405.3701405991308,662.705674473636,469.1953989104976,790.1811242809438,505.96746639528106C917.6565740882515,542.7395338800645,1027.993407790097,542.9189772995326,1156.1501549275156,582.1186303898355C1284.306902064934,621.3182834801385,1431.8132995933745,693.4554464351396,1559.1216071054553,741.1653849370989C1686.429914617536,788.8753234390582,1859.8536011842425,847.176115324176,1920,868.3782614015913L 1920 1080 L 0 1080 Z" fill="url(&quot;#SvgjsLinearGradient1279&quot;)"></path></svg>